<svg xmlns="http://www.w3.org/2000/svg" viewBox="0 0 64 64" width="64" height="64">
  <rect width="64" height="64" rx="14" fill="#0a0a0a"/>
  <path d="M24 20V14a8 8 0 0 1 16 0v6" stroke="#f5f0e6" stroke-width="4" stroke-linecap="round" fill="none"/>
  <path d="M18 22h28a10 10 0 0 1 10 10.5l-1 8a8 8 0 0 1-13.4 5.7L37 41.6a7 7 0 0 0-10 0L22.4 46.2A8 8 0 0 1 9 40.5l-1-8A10 10 0 0 1 18 22Z" stroke="#f5f0e6" stroke-width="4" stroke-linejoin="round" fill="none"/>
  <path d="M22 30v8M18 34h8" stroke="#f5f0e6" stroke-width="3.5" stroke-linecap="round"/>
  <circle cx="42" cy="30" r="1.8" fill="#f5f0e6"/>
  <circle cx="47" cy="35" r="1.8" fill="#f5f0e6"/>
  <circle cx="42" cy="40" r="1.8" fill="#f5f0e6"/>
  <circle cx="37" cy="35" r="1.8" fill="#f5f0e6"/>
</svg>
